<mxfile host="app.diagrams.net" modified="2022-02-25T06:32:00.244Z" agent="5.0 (Windows NT 10.0; WOW64) AppleWebKit/537.36 (KHTML, like Gecko) Chrome/73.0.3683.86 Safari/537.36" etag="Pl3UG5_9XsnxM21LvRfX" version="16.6.4" type="github">
  <diagram id="C5RBs43oDa-KdzZeNtuy" name="Page-1">
    <mxGraphModel dx="2249" dy="794" grid="1" gridSize="10" guides="1" tooltips="1" connect="1" arrows="1" fold="1" page="1" pageScale="1" pageWidth="827" pageHeight="1169" math="0" shadow="0">
      <root>
        <mxCell id="WIyWlLk6GJQsqaUBKTNV-0" />
        <mxCell id="WIyWlLk6GJQsqaUBKTNV-1" parent="WIyWlLk6GJQsqaUBKTNV-0" />
        <mxCell id="HDemBjrxflOcrxM6dK1a-2" value="" style="edgeStyle=orthogonalEdgeStyle;rounded=0;orthogonalLoop=1;jettySize=auto;html=1;fontSize=14;" edge="1" parent="WIyWlLk6GJQsqaUBKTNV-1" source="HDemBjrxflOcrxM6dK1a-0" target="HDemBjrxflOcrxM6dK1a-1">
          <mxGeometry relative="1" as="geometry" />
        </mxCell>
        <mxCell id="HDemBjrxflOcrxM6dK1a-0" value="&lt;font style=&quot;font-size: 14px&quot;&gt;org.springframework.aop.framework.CglibAopProxy.DynamicAdvisedInterceptor#intercept&amp;nbsp;&lt;/font&gt;" style="rounded=0;whiteSpace=wrap;html=1;" vertex="1" parent="WIyWlLk6GJQsqaUBKTNV-1">
          <mxGeometry x="-510" y="240" width="600" height="60" as="geometry" />
        </mxCell>
        <mxCell id="HDemBjrxflOcrxM6dK1a-1" value="org.springframework.aop.framework.ReflectiveMethodInvocation#proceed&amp;nbsp;" style="whiteSpace=wrap;html=1;rounded=0;" vertex="1" parent="WIyWlLk6GJQsqaUBKTNV-1">
          <mxGeometry x="180" y="240" width="410" height="60" as="geometry" />
        </mxCell>
      </root>
    </mxGraphModel>
  </diagram>
</mxfile>
